# xmcd CD database file
#
# Track frame offsets:
#	150
#	12784
#	29198
#	60651
#	97458
#	128665
#	186794
#	206095
#	229557
#
# Disc length: 3361 seconds
#
# Revision: 0
# Processed by: cddbd v1.5.2PL0 Copyright (c) Steve Scherf et al.
# Submitted via: CDex 1.51
#
DISCID=7d0d1f09
DTITLE=Patrick Palomo - Evolutions
DYEAR=2007
DGENRE=Jazz
TTITLE0=HIC
TTITLE1=Liberasion
TTITLE2=Famaguon
TTITLE3=An Gumupu Si Paluma - Batsun Chamorro Siha
TTITLE4=Sambandina
TTITLE5=The Joy Suite (Prelude, Joy, Dance)
TTITLE6=Imagine
TTITLE7=I Am Singing Ngiculela - Es Una Historia
TTITLE8=Time After Time
EXTD=YEAR: 2007
EXTT0=
EXTT1=
EXTT2=
EXTT3=
EXTT4=
EXTT5=
EXTT6=
EXTT7=
EXTT8=
PLAYORDER=
